<svg width="33" height="26" viewBox="0 0 33 26" fill="none" xmlns="http://www.w3.org/2000/svg">
<path d="M1.58625 6H3.58625C4.06032 6 5.23045 5.7229 5.58625 6C5.94204 6.27686 5.47809 7.552 5.58625 8L8.58625 18H19.5863L21.5863 11H8.58625L7.58625 9H24.5863L21.5863 19C21.4781 19.427 21.942 19.7231 21.5863 20C21.2305 20.2771 20.0391 20 19.5863 20H8.58625C8.13343 20 7.95317 20.2771 7.58625 20C7.21935 19.7231 6.6944 18.448 6.58625 18L3.58625 8H1.58625C1.30626 8 0.780325 8.1919 0.586254 8C0.392183 7.80786 0.586254 7.2771 0.586254 7C0.586254 6.7229 0.392183 6.19214 0.586254 6C0.780325 5.80811 1.30626 6 1.58625 6ZM9.58625 20C10.4272 20 10.9929 20.4031 11.5863 21C12.1796 21.5972 12.5863 22.189 12.5863 23C12.5863 23.811 12.1796 24.4028 11.5863 25C10.9929 25.5969 10.4272 26 9.58625 26C8.74528 26 8.16845 25.5872 7.58625 25C7.00404 24.4131 6.58625 23.8208 6.58625 23C6.58625 22.179 6.99294 21.5972 7.58625 21C8.17959 20.4031 8.76651 20 9.58625 20ZM9.58625 22C9.30626 22 8.78033 21.8081 8.58625 22C8.39218 22.1921 8.58625 22.7229 8.58625 23C8.58625 23.2771 8.39218 23.8079 8.58625 24C8.78033 24.1919 9.30626 24 9.58625 24C9.86623 24 10.3811 24.1919 10.5863 24C10.7914 23.8079 10.5863 23.2771 10.5863 23C10.5863 22.7229 10.7803 22.1921 10.5863 22C10.3922 21.8081 9.88847 22 9.58625 22ZM18.5863 20C19.406 20 19.9929 20.4031 20.5863 21C21.1796 21.5972 21.5863 22.189 21.5863 23C21.5863 23.811 21.1796 24.4028 20.5863 25C19.9929 25.5969 19.406 26 18.5863 26C17.7665 26 17.1897 25.5969 16.5863 25C15.9828 24.4028 15.5863 23.811 15.5863 23C15.5863 22.189 15.9929 21.5972 16.5863 21C17.1796 20.4031 17.7453 20 18.5863 20ZM18.5863 22C18.284 22 17.7803 21.8081 17.5863 22C17.3922 22.1921 17.5863 22.7229 17.5863 23C17.5863 23.2771 17.3922 23.8079 17.5863 24C17.7803 24.1919 18.284 24 18.5863 24C18.8885 24 19.4033 24.1919 19.5863 24C19.7692 23.8079 19.5863 23.2771 19.5863 23C19.5863 22.7229 19.7803 22.1921 19.5863 22C19.3922 21.8081 18.8662 22 18.5863 22Z" fill="#212121"/>
<circle cx="24.5" cy="8" r="8" fill="#424242"/>
<path d="M22.2528 11V10.3608L24.6534 7.73295C24.9351 7.42519 25.1671 7.15767 25.3494 6.9304C25.5317 6.70076 25.6667 6.48532 25.7543 6.28409C25.8442 6.08049 25.8892 5.86742 25.8892 5.64489C25.8892 5.3892 25.8277 5.16785 25.7045 4.98082C25.5838 4.7938 25.4181 4.64938 25.2074 4.54759C24.9967 4.44579 24.7599 4.39489 24.4972 4.39489C24.2178 4.39489 23.974 4.45289 23.7656 4.56889C23.5597 4.68253 23.3999 4.84233 23.2862 5.0483C23.175 5.25426 23.1193 5.49574 23.1193 5.77273H22.2812C22.2812 5.34659 22.3795 4.97254 22.576 4.65057C22.7725 4.3286 23.04 4.07765 23.3786 3.89773C23.7195 3.7178 24.1018 3.62784 24.5256 3.62784C24.9517 3.62784 25.3293 3.7178 25.6584 3.89773C25.9875 4.07765 26.2455 4.32031 26.4325 4.62571C26.6196 4.93111 26.7131 5.27083 26.7131 5.64489C26.7131 5.91241 26.6645 6.17401 26.5675 6.42969C26.4728 6.683 26.3071 6.96591 26.0703 7.27841C25.8359 7.58854 25.5104 7.96733 25.0938 8.41477L23.4602 10.1619V10.2188H26.8409V11H22.2528Z" fill="white"/>
</svg>
